<svg xmlns="http://www.w3.org/2000/svg" width="32" height="32" viewBox="0 0 24 24" fill="none" stroke="none">
  <!-- 배경 원 -->
  <circle cx="12" cy="12" r="12" fill="#e8f5e9"/>
  <!-- 나뭇잎 채우기 (lucide-leaf 기반) -->
  <path d="M11 20A7 7 0 0 1 4 13c0-5 5-9 8-11 3 2 8 6 8 11a7 7 0 0 1-7 7z" fill="#4caf50"/>
  <path d="M11 20A7 7 0 0 1 4 13c0-5 5-9 8-11 3 2 8 6 8 11a7 7 0 0 1-7 7z" fill="url(#leaf-grad)"/>
  <!-- 중심 줄기 라인 -->
  <line x1="12" y1="20" x2="12" y2="10" stroke="#2e7d32" stroke-width="1.2" stroke-linecap="round"/>
  <!-- 왼쪽 잎맥 -->
  <line x1="12" y1="14" x2="9" y2="11" stroke="#2e7d32" stroke-width="0.8" stroke-linecap="round"/>
  <!-- 오른쪽 잎맥 -->
  <line x1="12" y1="14" x2="15" y2="11" stroke="#2e7d32" stroke-width="0.8" stroke-linecap="round"/>
  <defs>
    <linearGradient id="leaf-grad" x1="4" y1="2" x2="20" y2="20" gradientUnits="userSpaceOnUse">
      <stop offset="0%" stop-color="#66bb6a"/>
      <stop offset="100%" stop-color="#388e3c"/>
    </linearGradient>
  </defs>
</svg>